# xmcd
#
# Track frame offsets: 
#        150
#        29543
#        50276
#        67050
#        77229
#        91887
#        111797
#        127038
#        142985
#        160935
#        184533
#        210286
#
# Disc length: 3243 seconds
#
# Revision: 4
# Processed by: cddbd v1.5.2PL0 Copyright (c) Steve Scherf et al.
# Submitted via: ExactAudioCopy v0.99pb5
#
DISCID=9f0ca90c
DTITLE=Various Artist - Popular Classics
DYEAR=1999
DGENRE=Classical
TTITLE0=Mozart - Serenade No. 13 'Eine Kleine Nachtmusik'
TTITLE1=Strauss - The Blue Danube Walz
TTITLE2=Grieg - Morning from Peer Gynt
TTITLE3=Bizet - Les Toreadors from Carmen
TTITLE4=Mozart - Rondo alla Turca
TTITLE5=Dvorak - Symphony No. 9 'From The New World' (Largo)
TTITLE6=Rossini - The William Tell Overture (Excerpt)
TTITLE7=Vivaldi - Spring from the Four Seasons (Allegro)
TTITLE8=Tchaikovsky - Serenade for Strings
TTITLE9=Chopin - Impromptu (Op. Posth)
TTITLE10=Bach - Air 'On the 'G' String'
TTITLE11=Beethoven - Symphony No.5
EXTD=
EXTT0=
EXTT1=
EXTT2=
EXTT3=
EXTT4=
EXTT5=
EXTT6=
EXTT7=
EXTT8=
EXTT9=
EXTT10=
EXTT11=
PLAYORDER=
